<?xml version="1.0" encoding="UTF-8" standalone="no"?>
<svg
   width="999.27808"
   height="132.48"
   viewBox="0 0 3122.7339 413.99999"
   version="1.1"
   id="svg1"
   xmlns="http://www.w3.org/2000/svg"
   xmlns:svg="http://www.w3.org/2000/svg">
  <defs
     id="defs1" />
  <path
     id="Auswahl"
     fill="none"
     stroke="#000000"
     stroke-width="1"
     d="m 153.53421,159.5 c -6.45,-3.32 -12.11,-8.33 -18,-12.58 l -33,-24.29 c -4.32,-3.25 -19.88,-14.04 -22.16,-17.3 -1.69,-2.42 -4.4,-10.65 -5.53,-13.83 l -8.5,-23 -10.86,-30 c -1.1,-3.01 -4.46,-10.06 -3.55,-12.99 1.92,-6.19 9.25,-7 14.6,-7.01 h 92 c 2.88,-0.01 6.24,0.32 8.61,-1.6 3.41,-2.74 6.02,-12.31 9.02,-14.41 1.79,-1.24 5.24,-0.99 7.37,-0.99 h 79 l 14,-1 h 51 c 8.22,0.12 13.15,4.47 20,8.6 l 34,20.8 134,81.8 34,20.8 c 8.87,5.33 11.32,8.98 22,9 h 724.99999 510 l 15,-1 h 123 245 664 c 9.29,0.01 16.02,2.19 25,3.75 l 56,10.83 173,33.42 c 14.7313,3.76013 23.9727,7.85809 0,14 l -27,5.2 -40,7.8 -108,21.2 -51,10.05 c -8.98,1.56 -15.71,3.74 -25,3.75 h -284 -129 l -15,1 h -93 -220 -111 l -15,1 h -292 -132 l -15,1 h -292 -132 l -15,1 H 689.53421 l -17,1 h -116 c -11.37,0.02 -15.3,4.43 -25,9.69 l -42,23.01 -167,91.61 -41,22.55 c -9.74,5.4 -16.63,11.12 -28,11.14 h -63 l -17,-1 h -78 l 5.72,-73 c 0.75,-6.4 0.2,-20.18 3.71,-25 l 43.4,-47 12.26,-14 c 0.45,-1.18 0.44,-1.82 0,-3 -0.45,-1.21 -2.09,-3 -2.94,-4 -5.06,-5.88 -5.64,-5.99 -13.15,-6 h -19 l -16,-1 h -54 c -12.9,0 -44.15,0.94 -55.00000021,-1 0,-2.44 -0.35,-7.55 1.02000001,-9.49 1.44,-2.02 5.65,-2.84 7.98,-3.51 l 20.0000002,-5.86 36,-10.48 26,-2.83 30,-2.83 h 13 c 2.99,-0.06 6,0.04 7.4,-3.15 l 2.22,-17.85 c 1.1,-5.82 6.43,-17.67 9.38,-23 z" />
  <path
     style="fill:none;stroke:#000000;stroke-width:3.125px;stroke-linecap:butt;stroke-linejoin:miter;stroke-opacity:1"
     d="m 570.52815,255.27301 c -14.57424,-37.03402 -18.26296,-74.55179 0.22606,-113.38632"
     id="path4" />
  <path
     style="fill:#48475c;fill-opacity:1;fill-rule:evenodd;stroke-width:0.904253"
     d="m 138.14647,411.70881 -41.875704,-0.24437 0.508044,-3.834 c 0.4436,-3.34766 3.009994,-35.82157 5.92775,-75.007 0.50768,-6.81813 1.32555,-13.45522 1.81747,-14.7491 0.49191,-1.29384 10.55926,-12.80682 22.37186,-25.5844 32.51673,-35.17305 34.58912,-37.59086 34.58912,-40.35459 0,-2.91539 -4.81562,-9.18551 -8.53029,-11.10677 -2.28155,-1.18003 -12.02244,-1.42341 -69.627407,-1.73969 -36.836118,-0.20228 -70.331793,-0.59666 -74.4348371,-0.87642 l -7.4600793,-0.50866 v -3.47124 c 0,-2.7776 1.7226366,-6.31318 3.0759518,-6.31318 0.1287093,0 14.1406756,-4.04975 31.1377056,-8.99945 l 30.903687,-8.99945 27.348022,-2.7589 c 15.041417,-1.51739 31.441117,-2.75751 36.443777,-2.75582 5.98583,0.002 9.63907,-0.39422 10.68481,-1.15888 1.17382,-0.85832 1.91964,-3.67902 2.85415,-10.79441 1.65158,-12.57515 1.79899,-13.1161 6.54688,-24.02506 2.22763,-5.11829 3.89751,-9.42093 3.71086,-9.56142 -0.18666,-0.14048 -1.76357,-1.21817 -3.50426,-2.39487 -5.10385,-3.45016 -60.667307,-44.33973 -64.937532,-47.78803 -2.145291,-1.73236 -4.467953,-4.24703 -5.161475,-5.58816 C 79.841451,101.75381 74.754754,88.294147 69.231207,73.184566 63.707657,58.074984 57.790323,41.9391 56.081576,37.327044 54.372829,32.714987 52.974763,28.004686 52.974763,26.859707 c 0,-3.127611 3.585163,-5.883322 8.986938,-6.907747 2.884412,-0.547018 24.728347,-0.914793 54.333949,-0.914793 56.78247,0 51.06248,0.957475 56.7214,-9.4946467 l 3.42703,-6.3297642 77.93554,-0.7581803 77.93556,-0.7581805 5.68831,3.0859894 c 4.55175,2.469395 70.23444,42.5296243 218.62481,133.3404953 2.72719,1.66897 6.44934,3.27288 8.2715,3.56426 l 3.31297,0.52976 -2.58128,6.25967 c -11.24872,27.27848 -12.07297,59.97477 -2.32178,92.10235 1.73593,5.71939 3.40715,11.04854 3.71384,11.84256 0.47903,1.24027 -0.70503,1.5264 -8.40459,2.03099 -10.0655,0.65963 -14.3495,1.91492 -21.74288,6.37108 -2.80494,1.6906 -59.82972,33.0786 -126.72178,69.75111 -66.89203,36.67253 -126.59521,69.50868 -132.67372,72.96925 -6.07851,3.46056 -12.95899,6.8659 -15.28994,7.5674 -4.4204,1.33035 -1.15802,1.31466 -124.04417,0.5975 z"
     id="path9" />
  <path
     style="fill:#b3b3b3;fill-opacity:1;fill-rule:evenodd;stroke-width:1.8085"
     d="m 565.0132,238.924 c -9.14491,-28.94785 -8.12025,-64.10309 2.573,-88.27694 l 3.47675,-7.85979 H 1715.1223 2859.1818 l 122.4473,23.60236 c 67.3458,12.9813 125.092,24.43799 128.3248,25.45932 6.5668,2.07468 7.4336,4.23421 2.7127,6.75838 -1.7407,0.93071 -59.3473,12.72015 -128.0146,26.19876 l -124.8499,24.50655 -930.4123,1.85906 c -511.7268,1.02248 -1026.94126,2.20815 -1144.9211,2.63482 l -214.50888,0.77576 z"
     id="path10" />
  <path
     style="fill:none;stroke:#000000;stroke-width:3.125px;stroke-linecap:butt;stroke-linejoin:miter;stroke-opacity:1"
     d="M 1972.9002,141.20074 V 251.81742"
     id="path11" />
  <path
     style="fill:#48475c;fill-opacity:1;fill-rule:evenodd;stroke-width:0.639403"
     d="m 1973.0573,199.37032 -0.4522,-58.18565 659.3614,1.58244 h 229.8416 l 82.9862,16.01199 c 134.0026,25.85549 165.3615,32.13728 169.7851,34.01113 3.4087,1.44399 3.9315,2.95361 1.5607,4.50702 -2.6001,1.70369 -55.9065,12.61276 -186.1883,38.10321 l -68.4161,13.38603 -229.7054,0.42864 -657.9454,2.82641 z"
     id="path12" />
</svg>
